<svg width="21" height="20" viewBox="0 0 21 20" fill="none" xmlns="http://www.w3.org/2000/svg">
<path d="M19.8452 0.365727C19.3575 -0.12191 18.5753 -0.12191 18.0876 0.365727L10.2109 8.24152L2.33424 0.365727C1.84655 -0.12191 1.0644 -0.12191 0.576706 0.365727C0.0890138 0.853363 0.0890138 1.63542 0.576706 2.12306L8.4534 9.99885L0.576706 17.8746C0.0890138 18.3623 0.0890138 19.1443 0.576706 19.632C0.815952 19.8712 1.13801 20 1.45087 20C1.76373 20 2.08579 19.8804 2.32504 19.632L10.2017 11.7562L18.0784 19.632C18.3177 19.8712 18.6397 20 18.9526 20C19.2747 20 19.5875 19.8804 19.8268 19.632C20.3145 19.1443 20.3145 18.3623 19.8268 17.8746L11.9685 9.99885L19.8452 2.12306C20.3329 1.63542 20.3329 0.853363 19.8452 0.365727Z" fill="#D9D9D9"/>
</svg>
