<svg width="97" height="98" viewBox="0 0 97 98" fill="none" xmlns="http://www.w3.org/2000/svg">
<g opacity="0.92">
<path d="M42.4363 29.2917L43.4469 34.3438" stroke="#151E42" stroke-width="2"/>
<path d="M48.5 29.2917V34.3438" stroke="#151E42" stroke-width="2"/>
<path d="M54.5639 29.2917L53.5532 34.3438" stroke="#151E42" stroke-width="2"/>
<path d="M25.2554 66.677V73.7499" stroke="#151E42" stroke-width="2"/>
<path d="M24.2446 57.5833L31.3191 60.1093V70.7187" stroke="#151E42" stroke-width="2"/>
<path d="M1 98V70.8913L29.7858 37.375C30.7616 37.7036 32.6156 39.3465 32.2252 43.2896L18.0763 66.9482L23.931 74.8344C28.3221 71.3841 38.3727 65.3709 43.4468 68.9197L27.3463 85.6778C27.3463 87.6494 25.5899 92.3811 18.5642 95.5356V98" stroke="#151E42" stroke-width="2"/>
<path d="M21.2126 47.271V8.34278C21.3766 5.89519 23.1797 1 29.0809 1H69.4056C71.7005 1 76.3886 2.27275 76.782 7.36374V71.4907C76.9459 74.2646 75.8968 79.7146 70.3891 79.323L33.015 79.8125" stroke="#151E42" stroke-width="2"/>
<path d="M42.4469 54.552C42.4469 55.6736 41.5374 56.5833 40.415 56.5833C39.2926 56.5833 38.3831 55.6736 38.3831 54.552C38.3831 53.4304 39.2926 52.5208 40.415 52.5208C41.5374 52.5208 42.4469 53.4304 42.4469 54.552Z" stroke="#151E42" stroke-width="2"/>
<path d="M56.5958 54.552C56.5958 55.6736 55.6863 56.5833 54.5639 56.5833C53.4415 56.5833 52.532 55.6736 52.532 54.552C52.532 53.4304 53.4415 52.5208 54.5639 52.5208C55.6863 52.5208 56.5958 53.4304 56.5958 54.552Z" stroke="#151E42" stroke-width="2"/>
<path d="M67.7022 18.177L60.9874 20.1257L56.1912 45.4583H39.4043" stroke="#151E42" stroke-width="2"/>
<path d="M59.617 26.2605H36.3723L41.6992 40.4063H57.1957" stroke="#151E42" stroke-width="2"/>
<path d="M80.8944 97.9999V77.6873C77.2067 72.5678 73.6532 60.3472 82.9058 52.4203L76.8716 38.0529C76.5363 33.0986 77.1733 22.7936 82.4031 21.2083L88.9403 42.5117L91.9574 46.9706" stroke="#151E42" stroke-width="2"/>
<path d="M76.7979 17.1667H86.6451L96 33.8233V98.0001" stroke="#151E42" stroke-width="2"/>
</g>
</svg>
