<svg width="84" height="87" viewBox="0 0 84 87" fill="none" xmlns="http://www.w3.org/2000/svg">
<path d="M76.7192 24.1592C78.2203 33.8028 75.7185 45.0372 68.9135 55.675C68.1129 56.9675 67.2122 58.2599 66.2115 59.4529C52.7016 77.3484 30.4852 85.6001 14.7737 77.8454C12.8723 76.8513 11.0709 75.7576 9.56982 74.4652L16.4749 80.3309C18.0761 81.6234 19.7773 82.8164 21.6787 83.7112C37.3903 91.4658 59.6066 83.2141 73.1166 65.3187C74.0172 64.1256 74.9179 62.8332 75.8186 61.5407C82.5235 51.0023 85.0253 39.6686 83.6243 30.0249C82.6236 23.0656 79.5213 17.1005 74.4175 12.8254L67.5125 6.95972C72.6162 11.1353 75.7185 17.1999 76.7192 24.1592Z" fill="url(#paint0_linear_1330_1147)"/>
<path d="M8.2698 25.7501C21.3794 5.2698 45.5973 -4.77151 62.4096 3.48026C79.222 11.732 82.1241 35.0955 69.0145 55.5758C55.9048 76.0561 31.687 85.998 14.8747 77.8457C-1.93771 69.5939 -4.83984 46.2304 8.2698 25.7501Z" fill="url(#paint1_linear_1330_1147)"/>
<path opacity="0.7" d="M62.3095 3.48009C45.4972 -4.77169 21.2793 5.1702 8.1697 25.7499C-4.93995 46.2302 -1.93773 69.5937 14.7746 77.8455C31.5869 86.0973 55.8047 76.1554 68.9144 55.5756C82.024 35.0953 79.1219 11.7319 62.3095 3.48009ZM68.1138 55.0785C58.5067 70.0908 42.7952 79.7344 27.8842 79.7344C23.2808 79.7344 19.0777 78.8397 15.2749 76.9507C8.77015 73.7693 4.26683 68.2018 2.26536 60.8448C-0.736847 50.3064 1.76498 37.6802 9.07036 26.247C18.6774 11.2348 34.389 1.59112 49.3 1.59112C53.9034 1.59112 58.1064 2.4859 61.9092 4.37486C68.414 7.55627 72.9173 13.1237 74.9188 20.4807C77.921 31.0191 75.4192 43.6453 68.1138 55.0785Z" fill="url(#paint2_linear_1330_1147)"/>
<path opacity="0.7" d="M8.27029 25.7499C-4.83935 46.2302 -1.83715 69.5937 14.8751 77.8455C31.6875 86.0973 55.9053 76.1554 69.015 55.5756C82.1246 35.0953 79.1224 11.7319 62.4101 3.48009C45.5978 -4.77169 21.3799 5.1702 8.27029 25.7499ZM62.3101 3.67892C72.2173 8.55045 77.7214 19.1883 76.9208 32.0133C76.4204 39.8674 73.6184 48.1192 68.8148 55.5756C55.8053 76.0559 31.5874 85.9978 14.8751 77.7461C4.96785 72.8745 -0.536188 62.2367 0.264402 49.4117C0.76477 41.5576 3.56682 33.3058 8.37036 25.8494C21.3799 5.36905 45.5978 -4.57285 62.3101 3.67892Z" fill="url(#paint3_linear_1330_1147)"/>
<defs>
<linearGradient id="paint0_linear_1330_1147" x1="77.4486" y1="13.3252" x2="33.731" y2="83.1052" gradientUnits="userSpaceOnUse">
<stop stop-color="white"/>
<stop offset="0.1267" stop-color="#DDDFED"/>
<stop offset="1" stop-color="#AEC6D7"/>
</linearGradient>
<linearGradient id="paint1_linear_1330_1147" x1="52.4392" y1="-0.233038" x2="29.3865" y2="68.7533" gradientUnits="userSpaceOnUse">
<stop stop-color="#F8F4FF"/>
<stop offset="0.999" stop-color="#DCECF3"/>
</linearGradient>
<linearGradient id="paint2_linear_1330_1147" x1="52.4392" y1="-0.233214" x2="29.3864" y2="68.7531" gradientUnits="userSpaceOnUse">
<stop stop-color="#F8F4FF"/>
<stop offset="1" stop-color="#F8F4FF" stop-opacity="0"/>
</linearGradient>
<linearGradient id="paint3_linear_1330_1147" x1="3.21228" y1="13.0347" x2="72.4572" y2="67.8686" gradientUnits="userSpaceOnUse">
<stop stop-color="#F8F4FF"/>
<stop offset="1" stop-color="#F8F4FF" stop-opacity="0"/>
</linearGradient>
</defs>
</svg>
