<svg width="84" height="187" viewBox="0 0 84 187" fill="none" xmlns="http://www.w3.org/2000/svg">
<path d="M76.7192 124.159C78.2203 133.803 75.7185 145.037 68.9135 155.675C68.1129 156.967 67.2122 158.26 66.2115 159.453C52.7016 177.348 30.4852 185.6 14.7737 177.845C12.8723 176.851 11.0709 175.758 9.56982 174.465L16.4749 180.331C18.0761 181.623 19.7773 182.816 21.6787 183.711C37.3903 191.466 59.6066 183.214 73.1166 165.319C74.0172 164.126 74.9179 162.833 75.8186 161.541C82.5235 151.002 85.0253 139.669 83.6243 130.025C82.6236 123.066 79.5213 117.1 74.4175 112.825L67.5125 106.96C72.6162 111.135 75.7185 117.2 76.7192 124.159Z" fill="url(#paint0_linear_666_647)"/>
<path d="M8.2698 125.75C21.3794 105.27 45.5973 95.2285 62.4096 103.48C79.222 111.732 82.1241 135.095 69.0145 155.576C55.9048 176.056 31.687 185.998 14.8747 177.846C-1.93771 169.594 -4.83984 146.23 8.2698 125.75Z" fill="url(#paint1_linear_666_647)"/>
<path opacity="0.7" d="M62.3095 103.48C45.4972 95.2283 21.2793 105.17 8.1697 125.75C-4.93995 146.23 -1.93773 169.594 14.7746 177.845C31.5869 186.097 55.8047 176.155 68.9144 155.576C82.024 135.095 79.1219 111.732 62.3095 103.48ZM68.1138 155.079C58.5067 170.091 42.7952 179.734 27.8842 179.734C23.2808 179.734 19.0777 178.84 15.2749 176.951C8.77015 173.769 4.26683 168.202 2.26536 160.845C-0.736847 150.306 1.76498 137.68 9.07036 126.247C18.6774 111.235 34.389 101.591 49.3 101.591C53.9034 101.591 58.1064 102.486 61.9092 104.375C68.414 107.556 72.9173 113.124 74.9188 120.481C77.921 131.019 75.4192 143.645 68.1138 155.079Z" fill="url(#paint2_linear_666_647)"/>
<path opacity="0.7" d="M8.27029 125.75C-4.83935 146.23 -1.83715 169.594 14.8751 177.845C31.6875 186.097 55.9053 176.155 69.015 155.576C82.1246 135.095 79.1224 111.732 62.4101 103.48C45.5978 95.2283 21.3799 105.17 8.27029 125.75ZM62.3101 103.679C72.2173 108.55 77.7214 119.188 76.9208 132.013C76.4204 139.867 73.6184 148.119 68.8148 155.576C55.8053 176.056 31.5874 185.998 14.8751 177.746C4.96785 172.875 -0.536188 162.237 0.264402 149.412C0.76477 141.558 3.56682 133.306 8.37036 125.849C21.3799 105.369 45.5978 95.4271 62.3101 103.679Z" fill="url(#paint3_linear_666_647)"/>
<path d="M25.5111 8.87064L48.2857 0.188232L44.7746 19.1642L22 27.8467L25.5111 8.87064Z" fill="url(#paint4_linear_666_647)"/>
<path d="M48.0177 0.188232L67.9997 20.1021L64.5122 39.1149L44.5303 19.2911L48.0177 0.188232Z" fill="url(#paint5_linear_666_647)"/>
<path d="M44.4309 18.6272L64.2449 38.5333L41.814 47.31L22 27.4039L44.4309 18.6272Z" fill="url(#paint6_linear_666_647)"/>
<defs>
<linearGradient id="paint0_linear_666_647" x1="77.4486" y1="113.325" x2="33.731" y2="183.105" gradientUnits="userSpaceOnUse">
<stop stop-color="white"/>
<stop offset="0.1267" stop-color="#DDDFED"/>
<stop offset="1" stop-color="#AEC6D7"/>
</linearGradient>
<linearGradient id="paint1_linear_666_647" x1="52.4392" y1="99.767" x2="29.3865" y2="168.753" gradientUnits="userSpaceOnUse">
<stop stop-color="#F8F4FF"/>
<stop offset="0.999" stop-color="#DCECF3"/>
</linearGradient>
<linearGradient id="paint2_linear_666_647" x1="52.4392" y1="99.7668" x2="29.3864" y2="168.753" gradientUnits="userSpaceOnUse">
<stop stop-color="#F8F4FF"/>
<stop offset="1" stop-color="#F8F4FF" stop-opacity="0"/>
</linearGradient>
<linearGradient id="paint3_linear_666_647" x1="3.21228" y1="113.035" x2="72.4572" y2="167.869" gradientUnits="userSpaceOnUse">
<stop stop-color="#F8F4FF"/>
<stop offset="1" stop-color="#F8F4FF" stop-opacity="0"/>
</linearGradient>
<linearGradient id="paint4_linear_666_647" x1="16.7193" y1="29.0362" x2="65.6671" y2="-15.7517" gradientUnits="userSpaceOnUse">
<stop offset="0.1109" stop-color="#EDEDED"/>
<stop offset="1" stop-color="#C7C7C7"/>
</linearGradient>
<linearGradient id="paint5_linear_666_647" x1="54.8513" y1="38.4385" x2="57.4904" y2="0.878768" gradientUnits="userSpaceOnUse">
<stop offset="0.1109" stop-color="#EDEDED"/>
<stop offset="1" stop-color="#C7C7C7"/>
</linearGradient>
<linearGradient id="paint6_linear_666_647" x1="58.141" y1="48.821" x2="37.931" y2="26.011" gradientUnits="userSpaceOnUse">
<stop offset="0.1109" stop-color="#EDEDED"/>
<stop offset="1" stop-color="#C7C7C7"/>
</linearGradient>
</defs>
</svg>
