<svg width="122" height="97" viewBox="0 0 122 97" fill="none" xmlns="http://www.w3.org/2000/svg">
<path d="M28.5708 68.5012H17.2557C8.46115 68.1561 1.00033 59.9231 1 52.3234C0.999501 40.7612 11.57 33.9575 19.1416 34.3026C18.3035 24.3808 21.9075 3.90388 43.029 1.37065C64.1505 -1.16258 71.8741 9.89181 72.5027 16.2249C81.9319 11.3695 102.347 14.9583 104.633 34.3026C109.872 34.7248 120.474 38.4824 120.977 50.1353C121.48 61.7881 113.515 68.1561 106.519 68.5012H87.6607M87.6607 68.5012V73.8843M87.6607 68.5012V60.9015M87.6607 79.2674V73.8843M87.6607 73.8843L95.2041 74.2009M87.6607 60.9015H95.2041M87.6607 60.9015V47.602M87.6607 47.602H93.9469M87.6607 47.602C87.4512 44.0133 85.272 36.9625 78.2315 37.4691H75.0884M75.0884 37.4691V29.8694M75.0884 37.4691H61.8875M61.8875 37.4691V29.8694M61.8875 37.4691H48.0579M48.0579 37.4691V30.5028M48.0579 37.4691C43.8672 37.258 35.6113 39.1157 36.1142 48.2354M36.1142 48.2354H29.8281M36.1142 48.2354V61.5348M36.1142 61.5348H29.1995M36.1142 61.5348L35.4856 75.4676M35.4856 75.4676H28.5708M35.4856 75.4676C35.2761 79.6896 36.3657 88.2604 42.4004 88.767L48.0579 89.4003M48.0579 89.4003V97M48.0579 89.4003H61.2589M61.2589 89.4003V97M61.2589 89.4003L75.0884 90.0336M75.0884 90.0336V97M75.0884 90.0336C78.441 90.0336 85.272 89.147 85.7749 85.6005" stroke="#151E42" stroke-width="2"/>
<path d="M67.5455 58.3683C67.5455 56.2573 66.3694 52.9567 61.888 52.6685M61.888 52.6685V48.2354M61.888 52.6685C60.0832 52.9567 56.3115 53.59 56.2305 58.3683C56.2305 59.846 57.2363 62.9281 61.2594 63.4347C66.2883 64.068 67.6266 66.2562 67.5455 69.1345C67.336 70.8233 65.9111 74.2009 61.888 74.2009M61.888 74.2009V78.6341M61.888 74.2009C60.2117 74.2009 56.7334 73.1877 56.2305 69.1345" stroke="#151E42" stroke-width="2"/>
</svg>
