<svg width="139" height="128" viewBox="0 0 139 128" fill="none" xmlns="http://www.w3.org/2000/svg">
<path d="M121.493 0C132.435 13.4793 138.992 30.6622 138.992 49.3767C138.992 50.4227 138.972 51.4639 138.931 52.5C138.902 53.2287 138.864 53.9548 138.816 54.6782C138.699 56.4171 138.527 58.1405 138.299 59.8466C138.196 60.6177 138.082 61.3852 137.957 62.149C137.8 63.1053 137.626 64.0557 137.435 65C137.266 65.8383 137.083 66.6717 136.887 67.5C136.728 68.17 136.561 68.8367 136.385 69.5C136.163 70.3389 135.928 71.1723 135.679 72C135.375 73.0087 135.052 74.0089 134.709 75C134.409 75.8678 134.094 76.7287 133.765 77.5825C133.442 78.4205 133.105 79.2516 132.754 80.0755C132.386 80.9383 132.004 81.7931 131.606 82.6397C131.199 83.5078 130.776 84.3672 130.338 85.2176C129.788 86.2858 129.215 87.3398 128.618 88.3788C128.023 89.4128 127.406 90.432 126.767 91.4356C126.215 92.3021 125.647 93.1571 125.062 94C124.304 95.094 123.518 96.1678 122.706 97.2204C121.991 98.1476 121.255 99.0583 120.5 99.9519C119.914 100.645 119.317 101.328 118.708 102C118.207 102.552 117.699 103.097 117.184 103.635C116.47 104.379 115.742 105.109 115 105.824C114.274 106.524 113.535 107.209 112.783 107.881C111.973 108.604 111.148 109.311 110.308 110C109.418 110.731 108.51 111.444 107.587 112.136C105.336 113.824 102.99 115.395 100.56 116.838C99.0343 117.744 97.4748 118.6 95.8843 119.403C94.1059 120.301 92.2886 121.133 90.4357 121.896C89.0424 122.47 87.6291 123.005 86.1968 123.5C84.6525 124.033 83.0863 124.52 81.5 124.958C79.8544 125.412 78.1871 125.814 76.5 126.161C74.8516 126.501 73.1844 126.789 71.5 127.024C70.3412 127.185 69.1744 127.321 68 127.431C67.0053 127.524 66.0052 127.599 65 127.655C64.3702 127.689 63.7384 127.717 63.1047 127.737C62.4054 127.759 61.7038 127.772 61 127.775C60.8642 127.776 60.7283 127.776 60.5924 127.776C36.1828 127.776 14.3787 116.621 0 99.1303L121.493 0Z" fill="white"/>
<path d="M121.493 0C132.435 13.4793 138.992 30.6622 138.992 49.3767C138.992 50.4227 138.972 51.4639 138.931 52.5C138.902 53.2287 138.864 53.9548 138.816 54.6782C138.699 56.4171 138.527 58.1405 138.299 59.8466C138.196 60.6177 138.082 61.3852 137.957 62.149C137.8 63.1053 137.626 64.0557 137.435 65C137.266 65.8383 137.083 66.6717 136.887 67.5C136.728 68.17 136.561 68.8367 136.385 69.5C136.163 70.3389 135.928 71.1723 135.679 72C135.375 73.0087 135.052 74.0089 134.709 75C134.409 75.8678 134.094 76.7287 133.765 77.5825C133.442 78.4205 133.105 79.2516 132.754 80.0755C132.386 80.9383 132.004 81.7931 131.606 82.6397C131.199 83.5078 130.776 84.3672 130.338 85.2176C129.788 86.2858 129.215 87.3398 128.618 88.3788C128.023 89.4128 127.406 90.432 126.767 91.4356C126.215 92.3021 125.647 93.1571 125.062 94C124.304 95.094 123.518 96.1678 122.706 97.2204C121.991 98.1476 121.255 99.0583 120.5 99.9519C119.914 100.645 119.317 101.328 118.708 102C118.207 102.552 117.699 103.097 117.184 103.635C116.47 104.379 115.742 105.109 115 105.824C114.274 106.524 113.535 107.209 112.783 107.881C111.973 108.604 111.148 109.311 110.308 110C109.418 110.731 108.51 111.444 107.587 112.136C105.336 113.824 102.99 115.395 100.56 116.838C99.0343 117.744 97.4748 118.6 95.8843 119.403C94.1059 120.301 92.2886 121.133 90.4357 121.896C89.0424 122.47 87.6291 123.005 86.1968 123.5C84.6525 124.033 83.0863 124.52 81.5 124.958C79.8544 125.412 78.1871 125.814 76.5 126.161C74.8516 126.501 73.1844 126.789 71.5 127.024C70.3412 127.185 69.1744 127.321 68 127.431C67.0053 127.524 66.0052 127.599 65 127.655C64.3702 127.689 63.7384 127.717 63.1047 127.737C62.4054 127.759 61.7038 127.772 61 127.775C60.8642 127.776 60.7283 127.776 60.5924 127.776C36.1828 127.776 14.3787 116.621 0 99.1303L121.493 0Z" fill="url(#paint0_radial_1600_2249)"/>
<path d="M121.493 0C132.435 13.4793 138.992 30.6622 138.992 49.3767C138.992 50.4227 138.972 51.4639 138.931 52.5C138.902 53.2287 138.864 53.9548 138.816 54.6782C138.699 56.4171 138.527 58.1405 138.299 59.8466C138.196 60.6177 138.082 61.3852 137.957 62.149C137.8 63.1053 137.626 64.0557 137.435 65C137.266 65.8383 137.083 66.6717 136.887 67.5C136.728 68.17 136.561 68.8367 136.385 69.5C136.163 70.3389 135.928 71.1723 135.679 72C135.375 73.0087 135.052 74.0089 134.709 75C134.409 75.8678 134.094 76.7287 133.765 77.5825C133.442 78.4205 133.105 79.2516 132.754 80.0755C132.386 80.9383 132.004 81.7931 131.606 82.6397C131.199 83.5078 130.776 84.3672 130.338 85.2176C129.788 86.2858 129.215 87.3398 128.618 88.3788C128.023 89.4128 127.406 90.432 126.767 91.4356C126.215 92.3021 125.647 93.1571 125.062 94C124.304 95.094 123.518 96.1678 122.706 97.2204C121.991 98.1476 121.255 99.0583 120.5 99.9519C119.914 100.645 119.317 101.328 118.708 102C118.207 102.552 117.699 103.097 117.184 103.635C116.47 104.379 115.742 105.109 115 105.824C114.274 106.524 113.535 107.209 112.783 107.881C111.973 108.604 111.148 109.311 110.308 110C109.418 110.731 108.51 111.444 107.587 112.136C105.336 113.824 102.99 115.395 100.56 116.838C99.0343 117.744 97.4748 118.6 95.8843 119.403C94.1059 120.301 92.2886 121.133 90.4357 121.896C89.0424 122.47 87.6291 123.005 86.1968 123.5C84.6525 124.033 83.0863 124.52 81.5 124.958C79.8544 125.412 78.1871 125.814 76.5 126.161C74.8516 126.501 73.1844 126.789 71.5 127.024C70.3412 127.185 69.1744 127.321 68 127.431C67.0053 127.524 66.0052 127.599 65 127.655C64.3702 127.689 63.7384 127.717 63.1047 127.737C62.4054 127.759 61.7038 127.772 61 127.775C60.8642 127.776 60.7283 127.776 60.5924 127.776C36.1828 127.776 14.3787 116.621 0 99.1303L121.493 0Z" fill="url(#paint1_linear_1600_2249)"/>
<path d="M121.493 0C132.435 13.4793 138.992 30.6622 138.992 49.3767C138.992 50.4227 138.972 51.4639 138.931 52.5C138.902 53.2287 138.864 53.9548 138.816 54.6782C138.699 56.4171 138.527 58.1405 138.299 59.8466C138.196 60.6177 138.082 61.3852 137.957 62.149C137.8 63.1053 137.626 64.0557 137.435 65C137.266 65.8383 137.083 66.6717 136.887 67.5C136.728 68.17 136.561 68.8367 136.385 69.5C136.163 70.3389 135.928 71.1723 135.679 72C135.375 73.0087 135.052 74.0089 134.709 75C134.409 75.8678 134.094 76.7287 133.765 77.5825C133.442 78.4205 133.105 79.2516 132.754 80.0755C132.386 80.9383 132.004 81.7931 131.606 82.6397C131.199 83.5078 130.776 84.3672 130.338 85.2176C129.788 86.2858 129.215 87.3398 128.618 88.3788C128.023 89.4128 127.406 90.432 126.767 91.4356C126.215 92.3021 125.647 93.1571 125.062 94C124.304 95.094 123.518 96.1678 122.706 97.2204C121.991 98.1476 121.255 99.0583 120.5 99.9519C119.914 100.645 119.317 101.328 118.708 102C118.207 102.552 117.699 103.097 117.184 103.635C116.47 104.379 115.742 105.109 115 105.824C114.274 106.524 113.535 107.209 112.783 107.881C111.973 108.604 111.148 109.311 110.308 110C109.418 110.731 108.51 111.444 107.587 112.136C105.336 113.824 102.99 115.395 100.56 116.838C99.0343 117.744 97.4748 118.6 95.8843 119.403C94.1059 120.301 92.2886 121.133 90.4357 121.896C89.0424 122.47 87.6291 123.005 86.1968 123.5C84.6525 124.033 83.0863 124.52 81.5 124.958C79.8544 125.412 78.1871 125.814 76.5 126.161C74.8516 126.501 73.1844 126.789 71.5 127.024C70.3412 127.185 69.1744 127.321 68 127.431C67.0053 127.524 66.0052 127.599 65 127.655C64.3702 127.689 63.7384 127.717 63.1047 127.737C62.4054 127.759 61.7038 127.772 61 127.775C60.8642 127.776 60.7283 127.776 60.5924 127.776C36.1828 127.776 14.3787 116.621 0 99.1303L121.493 0Z" fill="url(#paint2_linear_1600_2249)"/>
<path d="M121.493 0C132.435 13.4793 138.992 30.6622 138.992 49.3767C138.992 50.4227 138.972 51.4639 138.931 52.5C138.902 53.2287 138.864 53.9548 138.816 54.6782C138.699 56.4171 138.527 58.1405 138.299 59.8466C138.196 60.6177 138.082 61.3852 137.957 62.149C137.8 63.1053 137.626 64.0557 137.435 65C137.266 65.8383 137.083 66.6717 136.887 67.5C136.728 68.17 136.561 68.8367 136.385 69.5C136.163 70.3389 135.928 71.1723 135.679 72C135.375 73.0087 135.052 74.0089 134.709 75C134.409 75.8678 134.094 76.7287 133.765 77.5825C133.442 78.4205 133.105 79.2516 132.754 80.0755C132.386 80.9383 132.004 81.7931 131.606 82.6397C131.199 83.5078 130.776 84.3672 130.338 85.2176C129.788 86.2858 129.215 87.3398 128.618 88.3788C128.023 89.4128 127.406 90.432 126.767 91.4356C126.215 92.3021 125.647 93.1571 125.062 94C124.304 95.094 123.518 96.1678 122.706 97.2204C121.991 98.1476 121.255 99.0583 120.5 99.9519C119.914 100.645 119.317 101.328 118.708 102C118.207 102.552 117.699 103.097 117.184 103.635C116.47 104.379 115.742 105.109 115 105.824C114.274 106.524 113.535 107.209 112.783 107.881C111.973 108.604 111.148 109.311 110.308 110C109.418 110.731 108.51 111.444 107.587 112.136C105.336 113.824 102.99 115.395 100.56 116.838C99.0343 117.744 97.4748 118.6 95.8843 119.403C94.1059 120.301 92.2886 121.133 90.4357 121.896C89.0424 122.47 87.6291 123.005 86.1968 123.5C84.6525 124.033 83.0863 124.52 81.5 124.958C79.8544 125.412 78.1871 125.814 76.5 126.161C74.8516 126.501 73.1844 126.789 71.5 127.024C70.3412 127.185 69.1744 127.321 68 127.431C67.0053 127.524 66.0052 127.599 65 127.655C64.3702 127.689 63.7384 127.717 63.1047 127.737C62.4054 127.759 61.7038 127.772 61 127.775C60.8642 127.776 60.7283 127.776 60.5924 127.776C36.1828 127.776 14.3787 116.621 0 99.1303L121.493 0Z" fill="url(#paint3_linear_1600_2249)"/>
<path d="M121.493 0C132.435 13.4793 138.992 30.6622 138.992 49.3767C138.992 50.4227 138.972 51.4639 138.931 52.5C138.902 53.2287 138.864 53.9548 138.816 54.6782C138.699 56.4171 138.527 58.1405 138.299 59.8466C138.196 60.6177 138.082 61.3852 137.957 62.149C137.8 63.1053 137.626 64.0557 137.435 65C137.266 65.8383 137.083 66.6717 136.887 67.5C136.728 68.17 136.561 68.8367 136.385 69.5C136.163 70.3389 135.928 71.1723 135.679 72C135.375 73.0087 135.052 74.0089 134.709 75C134.409 75.8678 134.094 76.7287 133.765 77.5825C133.442 78.4205 133.105 79.2516 132.754 80.0755C132.386 80.9383 132.004 81.7931 131.606 82.6397C131.199 83.5078 130.776 84.3672 130.338 85.2176C129.788 86.2858 129.215 87.3398 128.618 88.3788C128.023 89.4128 127.406 90.432 126.767 91.4356C126.215 92.3021 125.647 93.1571 125.062 94C124.304 95.094 123.518 96.1678 122.706 97.2204C121.991 98.1476 121.255 99.0583 120.5 99.9519C119.914 100.645 119.317 101.328 118.708 102C118.207 102.552 117.699 103.097 117.184 103.635C116.47 104.379 115.742 105.109 115 105.824C114.274 106.524 113.535 107.209 112.783 107.881C111.973 108.604 111.148 109.311 110.308 110C109.418 110.731 108.51 111.444 107.587 112.136C105.336 113.824 102.99 115.395 100.56 116.838C99.0343 117.744 97.4748 118.6 95.8843 119.403C94.1059 120.301 92.2886 121.133 90.4357 121.896C89.0424 122.47 87.6291 123.005 86.1968 123.5C84.6525 124.033 83.0863 124.52 81.5 124.958C79.8544 125.412 78.1871 125.814 76.5 126.161C74.8516 126.501 73.1844 126.789 71.5 127.024C70.3412 127.185 69.1744 127.321 68 127.431C67.0053 127.524 66.0052 127.599 65 127.655C64.3702 127.689 63.7384 127.717 63.1047 127.737C62.4054 127.759 61.7038 127.772 61 127.775C60.8642 127.776 60.7283 127.776 60.5924 127.776C36.1828 127.776 14.3787 116.621 0 99.1303L121.493 0Z" fill="url(#paint4_radial_1600_2249)"/>
<path d="M121.493 0C132.435 13.4793 138.992 30.6622 138.992 49.3767C138.992 50.4227 138.972 51.4639 138.931 52.5C138.902 53.2287 138.864 53.9548 138.816 54.6782C138.699 56.4171 138.527 58.1405 138.299 59.8466C138.196 60.6177 138.082 61.3852 137.957 62.149C137.8 63.1053 137.626 64.0557 137.435 65C137.266 65.8383 137.083 66.6717 136.887 67.5C136.728 68.17 136.561 68.8367 136.385 69.5C136.163 70.3389 135.928 71.1723 135.679 72C135.375 73.0087 135.052 74.0089 134.709 75C134.409 75.8678 134.094 76.7287 133.765 77.5825C133.442 78.4205 133.105 79.2516 132.754 80.0755C132.386 80.9383 132.004 81.7931 131.606 82.6397C131.199 83.5078 130.776 84.3672 130.338 85.2176C129.788 86.2858 129.215 87.3398 128.618 88.3788C128.023 89.4128 127.406 90.432 126.767 91.4356C126.215 92.3021 125.647 93.1571 125.062 94C124.304 95.094 123.518 96.1678 122.706 97.2204C121.991 98.1476 121.255 99.0583 120.5 99.9519C119.914 100.645 119.317 101.328 118.708 102C118.207 102.552 117.699 103.097 117.184 103.635C116.47 104.379 115.742 105.109 115 105.824C114.274 106.524 113.535 107.209 112.783 107.881C111.973 108.604 111.148 109.311 110.308 110C109.418 110.731 108.51 111.444 107.587 112.136C105.336 113.824 102.99 115.395 100.56 116.838C99.0343 117.744 97.4748 118.6 95.8843 119.403C94.1059 120.301 92.2886 121.133 90.4357 121.896C89.0424 122.47 87.6291 123.005 86.1968 123.5C84.6525 124.033 83.0863 124.52 81.5 124.958C79.8544 125.412 78.1871 125.814 76.5 126.161C74.8516 126.501 73.1844 126.789 71.5 127.024C70.3412 127.185 69.1744 127.321 68 127.431C67.0053 127.524 66.0052 127.599 65 127.655C64.3702 127.689 63.7384 127.717 63.1047 127.737C62.4054 127.759 61.7038 127.772 61 127.775C60.8642 127.776 60.7283 127.776 60.5924 127.776C36.1828 127.776 14.3787 116.621 0 99.1303L121.493 0Z" fill="url(#paint5_radial_1600_2249)"/>
<path d="M121.493 0C132.435 13.4793 138.992 30.6622 138.992 49.3767C138.992 50.4227 138.972 51.4639 138.931 52.5C138.902 53.2287 138.864 53.9548 138.816 54.6782C138.699 56.4171 138.527 58.1405 138.299 59.8466C138.196 60.6177 138.082 61.3852 137.957 62.149C137.8 63.1053 137.626 64.0557 137.435 65C137.266 65.8383 137.083 66.6717 136.887 67.5C136.728 68.17 136.561 68.8367 136.385 69.5C136.163 70.3389 135.928 71.1723 135.679 72C135.375 73.0087 135.052 74.0089 134.709 75C134.409 75.8678 134.094 76.7287 133.765 77.5825C133.442 78.4205 133.105 79.2516 132.754 80.0755C132.386 80.9383 132.004 81.7931 131.606 82.6397C131.199 83.5078 130.776 84.3672 130.338 85.2176C129.788 86.2858 129.215 87.3398 128.618 88.3788C128.023 89.4128 127.406 90.432 126.767 91.4356C126.215 92.3021 125.647 93.1571 125.062 94C124.304 95.094 123.518 96.1678 122.706 97.2204C121.991 98.1476 121.255 99.0583 120.5 99.9519C119.914 100.645 119.317 101.328 118.708 102C118.207 102.552 117.699 103.097 117.184 103.635C116.47 104.379 115.742 105.109 115 105.824C114.274 106.524 113.535 107.209 112.783 107.881C111.973 108.604 111.148 109.311 110.308 110C109.418 110.731 108.51 111.444 107.587 112.136C105.336 113.824 102.99 115.395 100.56 116.838C99.0343 117.744 97.4748 118.6 95.8843 119.403C94.1059 120.301 92.2886 121.133 90.4357 121.896C89.0424 122.47 87.6291 123.005 86.1968 123.5C84.6525 124.033 83.0863 124.52 81.5 124.958C79.8544 125.412 78.1871 125.814 76.5 126.161C74.8516 126.501 73.1844 126.789 71.5 127.024C70.3412 127.185 69.1744 127.321 68 127.431C67.0053 127.524 66.0052 127.599 65 127.655C64.3702 127.689 63.7384 127.717 63.1047 127.737C62.4054 127.759 61.7038 127.772 61 127.775C60.8642 127.776 60.7283 127.776 60.5924 127.776C36.1828 127.776 14.3787 116.621 0 99.1303L121.493 0Z" fill="url(#paint6_radial_1600_2249)"/>
<path d="M121.493 0C132.435 13.4793 138.992 30.6622 138.992 49.3767C138.992 50.4227 138.972 51.4639 138.931 52.5C138.902 53.2287 138.864 53.9548 138.816 54.6782C138.699 56.4171 138.527 58.1405 138.299 59.8466C138.196 60.6177 138.082 61.3852 137.957 62.149C137.8 63.1053 137.626 64.0557 137.435 65C137.266 65.8383 137.083 66.6717 136.887 67.5C136.728 68.17 136.561 68.8367 136.385 69.5C136.163 70.3389 135.928 71.1723 135.679 72C135.375 73.0087 135.052 74.0089 134.709 75C134.409 75.8678 134.094 76.7287 133.765 77.5825C133.442 78.4205 133.105 79.2516 132.754 80.0755C132.386 80.9383 132.004 81.7931 131.606 82.6397C131.199 83.5078 130.776 84.3672 130.338 85.2176C129.788 86.2858 129.215 87.3398 128.618 88.3788C128.023 89.4128 127.406 90.432 126.767 91.4356C126.215 92.3021 125.647 93.1571 125.062 94C124.304 95.094 123.518 96.1678 122.706 97.2204C121.991 98.1476 121.255 99.0583 120.5 99.9519C119.914 100.645 119.317 101.328 118.708 102C118.207 102.552 117.699 103.097 117.184 103.635C116.47 104.379 115.742 105.109 115 105.824C114.274 106.524 113.535 107.209 112.783 107.881C111.973 108.604 111.148 109.311 110.308 110C109.418 110.731 108.51 111.444 107.587 112.136C105.336 113.824 102.99 115.395 100.56 116.838C99.0343 117.744 97.4748 118.6 95.8843 119.403C94.1059 120.301 92.2886 121.133 90.4357 121.896C89.0424 122.47 87.6291 123.005 86.1968 123.5C84.6525 124.033 83.0863 124.52 81.5 124.958C79.8544 125.412 78.1871 125.814 76.5 126.161C74.8516 126.501 73.1844 126.789 71.5 127.024C70.3412 127.185 69.1744 127.321 68 127.431C67.0053 127.524 66.0052 127.599 65 127.655C64.3702 127.689 63.7384 127.717 63.1047 127.737C62.4054 127.759 61.7038 127.772 61 127.775C60.8642 127.776 60.7283 127.776 60.5924 127.776C36.1828 127.776 14.3787 116.621 0 99.1303L121.493 0Z" fill="url(#paint7_linear_1600_2249)"/>
<defs>
<radialGradient id="paint0_radial_1600_2249" cx="0" cy="0" r="1" gradientUnits="userSpaceOnUse" gradientTransform="translate(126.135 51.3023) rotate(107.004) scale(130.108 63.8072)">
<stop stop-color="#217BF4"/>
<stop offset="0.344597" stop-color="white"/>
<stop offset="0.695017" stop-color="#5F6DFF"/>
<stop offset="1" stop-color="#8CB9FF"/>
</radialGradient>
<linearGradient id="paint1_linear_1600_2249" x1="78.9648" y1="-8.6303" x2="109.822" y2="18.1002" gradientUnits="userSpaceOnUse">
<stop stop-color="#217BF4"/>
<stop offset="0.456382" stop-color="white"/>
<stop offset="1" stop-color="#217BF4"/>
</linearGradient>
<linearGradient id="paint2_linear_1600_2249" x1="148.895" y1="-29.9663" x2="114.303" y2="20.9898" gradientUnits="userSpaceOnUse">
<stop stop-color="#217BF4"/>
<stop offset="0.461891" stop-color="white"/>
<stop offset="1" stop-color="#191D23"/>
</linearGradient>
<linearGradient id="paint3_linear_1600_2249" x1="35.3561" y1="20.1374" x2="70.2801" y2="57.5894" gradientUnits="userSpaceOnUse">
<stop stop-color="#6AD5FF"/>
<stop offset="1" stop-color="#55BBF8"/>
</linearGradient>
<radialGradient id="paint4_radial_1600_2249" cx="0" cy="0" r="1" gradientUnits="userSpaceOnUse" gradientTransform="translate(63.3282 57.0558) rotate(-119.373) scale(40.0264 82.8296)">
<stop stop-color="#217BF4"/>
<stop offset="1" stop-color="white" stop-opacity="0"/>
</radialGradient>
<radialGradient id="paint5_radial_1600_2249" cx="0" cy="0" r="1" gradientUnits="userSpaceOnUse" gradientTransform="translate(49.8634 127.776) rotate(-127.397) scale(57.7864 78.9276)">
<stop stop-color="#217BF4"/>
<stop offset="1" stop-color="white" stop-opacity="0"/>
</radialGradient>
<radialGradient id="paint6_radial_1600_2249" cx="0" cy="0" r="1" gradientUnits="userSpaceOnUse" gradientTransform="translate(61.504 111.115) rotate(-138.881) scale(50.853 95.6199)">
<stop stop-color="#217BF4"/>
<stop offset="1" stop-color="white" stop-opacity="0"/>
</radialGradient>
<linearGradient id="paint7_linear_1600_2249" x1="0" y1="0" x2="28.0292" y2="20.0669" gradientUnits="userSpaceOnUse">
<stop stop-color="white"/>
<stop offset="1" stop-color="#EBF3D0" stop-opacity="0"/>
</linearGradient>
</defs>
</svg>
