<svg width="139" height="128" viewBox="0 0 139 128" fill="none" xmlns="http://www.w3.org/2000/svg">
<path d="M60.5924 127.776C103.891 127.776 138.992 92.6756 138.992 49.3767C138.992 30.6622 132.435 13.4793 121.493 0L0 99.1303C14.3787 116.621 36.1828 127.776 60.5924 127.776Z" fill="white"/>
<path d="M60.5924 127.776C103.891 127.776 138.992 92.6756 138.992 49.3767C138.992 30.6622 132.435 13.4793 121.493 0L0 99.1303C14.3787 116.621 36.1828 127.776 60.5924 127.776Z" fill="url(#paint0_radial_1951_2926)"/>
<path d="M60.5924 127.776C103.891 127.776 138.992 92.6756 138.992 49.3767C138.992 30.6622 132.435 13.4793 121.493 0L0 99.1303C14.3787 116.621 36.1828 127.776 60.5924 127.776Z" fill="url(#paint1_linear_1951_2926)"/>
<path d="M60.5924 127.776C103.891 127.776 138.992 92.6756 138.992 49.3767C138.992 30.6622 132.435 13.4793 121.493 0L0 99.1303C14.3787 116.621 36.1828 127.776 60.5924 127.776Z" fill="url(#paint2_linear_1951_2926)"/>
<path d="M60.5924 127.776C103.891 127.776 138.992 92.6756 138.992 49.3767C138.992 30.6622 132.435 13.4793 121.493 0L0 99.1303C14.3787 116.621 36.1828 127.776 60.5924 127.776Z" fill="url(#paint3_linear_1951_2926)"/>
<path d="M60.5924 127.776C103.891 127.776 138.992 92.6756 138.992 49.3767C138.992 30.6622 132.435 13.4793 121.493 0L0 99.1303C14.3787 116.621 36.1828 127.776 60.5924 127.776Z" fill="url(#paint4_radial_1951_2926)"/>
<path d="M60.5924 127.776C103.891 127.776 138.992 92.6756 138.992 49.3767C138.992 30.6622 132.435 13.4793 121.493 0L0 99.1303C14.3787 116.621 36.1828 127.776 60.5924 127.776Z" fill="url(#paint5_radial_1951_2926)"/>
<path d="M60.5924 127.776C103.891 127.776 138.992 92.6756 138.992 49.3767C138.992 30.6622 132.435 13.4793 121.493 0L0 99.1303C14.3787 116.621 36.1828 127.776 60.5924 127.776Z" fill="url(#paint6_radial_1951_2926)"/>
<path d="M60.5924 127.776C103.891 127.776 138.992 92.6756 138.992 49.3767C138.992 30.6622 132.435 13.4793 121.493 0L0 99.1303C14.3787 116.621 36.1828 127.776 60.5924 127.776Z" fill="url(#paint7_linear_1951_2926)"/>
<defs>
<radialGradient id="paint0_radial_1951_2926" cx="0" cy="0" r="1" gradientUnits="userSpaceOnUse" gradientTransform="translate(126.135 51.3023) rotate(107.004) scale(130.108 63.8072)">
<stop stop-color="#217BF4"/>
<stop offset="0.344597" stop-color="white"/>
<stop offset="0.695017" stop-color="#5F6DFF"/>
<stop offset="1" stop-color="#8CB9FF"/>
</radialGradient>
<linearGradient id="paint1_linear_1951_2926" x1="78.9648" y1="-8.6303" x2="109.822" y2="18.1002" gradientUnits="userSpaceOnUse">
<stop stop-color="#217BF4"/>
<stop offset="0.456382" stop-color="white"/>
<stop offset="1" stop-color="#217BF4"/>
</linearGradient>
<linearGradient id="paint2_linear_1951_2926" x1="148.895" y1="-29.9663" x2="114.303" y2="20.9898" gradientUnits="userSpaceOnUse">
<stop stop-color="#217BF4"/>
<stop offset="0.461891" stop-color="white"/>
<stop offset="1" stop-color="#191D23"/>
</linearGradient>
<linearGradient id="paint3_linear_1951_2926" x1="35.3561" y1="20.1374" x2="70.2801" y2="57.5894" gradientUnits="userSpaceOnUse">
<stop stop-color="#6AD5FF"/>
<stop offset="1" stop-color="#55BBF8"/>
</linearGradient>
<radialGradient id="paint4_radial_1951_2926" cx="0" cy="0" r="1" gradientUnits="userSpaceOnUse" gradientTransform="translate(63.3282 57.0558) rotate(-119.373) scale(40.0264 82.8296)">
<stop stop-color="#217BF4"/>
<stop offset="1" stop-color="white" stop-opacity="0"/>
</radialGradient>
<radialGradient id="paint5_radial_1951_2926" cx="0" cy="0" r="1" gradientUnits="userSpaceOnUse" gradientTransform="translate(49.8634 127.776) rotate(-127.397) scale(57.7864 78.9276)">
<stop stop-color="#217BF4"/>
<stop offset="1" stop-color="white" stop-opacity="0"/>
</radialGradient>
<radialGradient id="paint6_radial_1951_2926" cx="0" cy="0" r="1" gradientUnits="userSpaceOnUse" gradientTransform="translate(61.504 111.115) rotate(-138.881) scale(50.853 95.6199)">
<stop stop-color="#217BF4"/>
<stop offset="1" stop-color="white" stop-opacity="0"/>
</radialGradient>
<linearGradient id="paint7_linear_1951_2926" x1="0" y1="0" x2="28.0292" y2="20.0669" gradientUnits="userSpaceOnUse">
<stop stop-color="white"/>
<stop offset="1" stop-color="#EBF3D0" stop-opacity="0"/>
</linearGradient>
</defs>
</svg>
