<svg width="24" height="25" viewBox="0 0 24 25" fill="none" xmlns="http://www.w3.org/2000/svg">
<g clip-path="url(#clip0_1382_1342)">
<path d="M9.42871 8.78858H14.143V11.0963C14.8573 10.1732 16.8001 8.41935 18.8573 8.78858C21.4287 9.25012 23.143 10.6347 23.5716 13.8655V24.4808H19.2859V15.7116C19.2859 14.7885 18.8573 12.9424 17.143 12.9424C15.0001 12.9424 14.143 14.327 14.143 15.7116V24.4808H9.42871V8.78858Z" fill="#0073B1"/>
<path d="M3 7.40392C4.65685 7.40392 6 5.95746 6 4.17315C6 2.38885 4.65685 0.942383 3 0.942383C1.34315 0.942383 0 2.38885 0 4.17315C0 5.95746 1.34315 7.40392 3 7.40392Z" fill="#0073B1"/>
<path d="M6.00028 8.32715H0.857422V24.9425H6.00028V8.32715Z" fill="#0073B1"/>
</g>
<defs>
<clipPath id="clip0_1382_1342">
<rect width="24" height="24" fill="white" transform="translate(0 0.942383)"/>
</clipPath>
</defs>
</svg>
