<svg width="208" height="56" viewBox="0 0 208 56" fill="none" xmlns="http://www.w3.org/2000/svg">
<path fill-rule="evenodd" clip-rule="evenodd" d="M31.4017 5.62109H32.7831C33.0376 5.62109 33.2921 5.62109 33.5829 5.62109H44.9255C47.2159 5.62109 49.3608 8.98051 50.1242 11.0451L63.8663 47.9637C64.6297 50.0284 61.9758 50.5883 59.6855 50.5883H45.5436C43.2532 50.5883 40.8538 48.6636 40.1267 46.564L32.0924 23.433L24.058 46.564C23.3309 48.6636 20.9315 50.5883 18.6412 50.5883C13.9151 50.5883 9.22539 50.5883 4.4993 50.5883C2.20896 50.5883 -0.663047 49.8534 0.136752 47.7887C1.62729 43.8344 5.19003 31.9015 7.88027 29.4519C9.18903 28.2971 10.1706 28.1922 12.8972 27.8772C15.8783 27.4573 16.7871 27.5273 17.6596 26.8974C19.4047 25.6376 20.3499 23.8179 21.0406 21.8933C22.7129 17.2041 24.3852 12.5499 26.0939 7.8607C26.821 5.79606 27.0391 5.76107 30.0929 5.69108C30.5291 5.65609 31.0018 5.62109 31.438 5.62109H31.4017Z" fill="url(#paint0_angular_666_1507)"/>
<g clip-path="url(#clip0_666_1507)">
<path d="M88.207 34.6868L99.5129 9.45166C100.055 8.24808 100.669 7.41894 101.354 6.96426C102.068 6.50957 103.096 6.28223 104.438 6.28223C105.723 6.28223 106.722 6.52294 107.436 7.00438C108.178 7.45906 108.82 8.27482 109.363 9.45166L120.669 34.6868H114.716L111.632 27.5856H97.2003L94.1597 34.6868H88.207ZM103.581 12.3804L98.6564 23.8144H110.176L105.294 12.3804C104.98 11.6047 104.695 11.2169 104.438 11.2169C104.181 11.2169 103.895 11.6047 103.581 12.3804ZM168.169 34.6868H162.516V6.60318H168.169V34.6868ZM172.407 34.6868V30.4742H189.024C190.908 30.4742 191.85 29.4579 191.85 27.4252C191.85 25.8739 190.879 24.8174 188.938 24.2557L177.118 20.7653C175.234 20.2037 173.906 19.3478 173.135 18.1977C172.393 17.0209 172.022 15.4161 172.022 13.3834C172.022 11.2972 172.593 9.65226 173.735 8.44867C174.877 7.21835 176.59 6.60318 178.874 6.60318H196.133V10.8157H180.373C179.602 10.8157 178.988 11.0431 178.531 11.4977C178.075 11.9524 177.846 12.6612 177.846 13.6241C177.846 14.3997 178.003 15.0416 178.317 15.5498C178.66 16.058 179.374 16.4726 180.458 16.7935L191.422 20.0432C193.677 20.7118 195.276 21.5811 196.218 22.6509C197.189 23.7208 197.674 25.3256 197.674 27.4653C197.674 29.6585 197.146 31.4103 196.09 32.7209C195.062 34.0315 193.449 34.6868 191.25 34.6868H172.407Z" fill="white"/>
<path d="M88.2072 34.6867L87.7958 34.525L87.5361 35.1046H88.2072V34.6867ZM99.513 9.4516L99.102 9.28903L99.1017 9.28987L99.513 9.4516ZM101.355 6.9642L101.104 6.61863L101.1 6.62084L101.097 6.62318L101.355 6.9642ZM107.436 7.00432L107.175 7.34345L107.183 7.34897L107.192 7.35411L107.436 7.00432ZM109.363 9.4516L109.774 9.28987L109.772 9.28594L109.363 9.4516ZM120.669 34.6867V35.1046H121.34L121.08 34.525L120.669 34.6867ZM114.716 34.6867L114.303 34.8442L114.416 35.1046H114.716V34.6867ZM111.633 27.5856L112.046 27.4281L111.933 27.1677H111.633V27.5856ZM97.2005 27.5856V27.1677H96.8988L96.7864 27.43L97.2005 27.5856ZM94.1599 34.6867V35.1046H94.4616L94.5739 34.8423L94.1599 34.6867ZM103.581 12.3803L103.995 12.5367L103.997 12.5326L103.999 12.5285L103.581 12.3803ZM98.6565 23.8143L98.2429 23.658L97.9955 24.2323H98.6565V23.8143ZM110.177 23.8143V24.2323H110.835L110.591 23.6591L110.177 23.8143ZM105.294 12.3803L104.877 12.5285L104.879 12.532L104.88 12.5355L105.294 12.3803ZM88.6185 34.8484L99.9244 9.61333L99.1017 9.28987L87.7958 34.525L88.6185 34.8484ZM99.924 9.61417C100.453 8.43992 101.026 7.69425 101.612 7.30521L101.097 6.62318C100.312 7.14352 99.6577 8.05611 99.1021 9.28903L99.924 9.61417ZM101.605 7.30977C102.215 6.9217 103.14 6.70008 104.438 6.70008V5.86426C103.053 5.86426 101.922 6.09733 101.104 6.61863L101.605 7.30977ZM104.438 6.70008C105.67 6.70008 106.565 6.93194 107.175 7.34345L107.696 6.66518C106.879 6.11383 105.775 5.86426 104.438 5.86426V6.70008ZM107.192 7.35411C107.831 7.74573 108.428 8.47783 108.953 9.61726L109.772 9.28594C109.213 8.0717 108.525 7.17228 107.68 6.65453L107.192 7.35411ZM108.952 9.61333L120.257 34.8484L121.08 34.525L109.774 9.28987L108.952 9.61333ZM120.669 34.2688H114.716V35.1046H120.669V34.2688ZM115.129 34.5292L112.046 27.4281L111.219 27.743L114.303 34.8442L115.129 34.5292ZM111.633 27.1677H97.2005V28.0035H111.633V27.1677ZM96.7864 27.43L93.7459 34.5311L94.5739 34.8423L97.6145 27.7412L96.7864 27.43ZM94.1599 34.2688H88.2072V35.1046H94.1599V34.2688ZM103.168 12.2239L98.2429 23.658L99.0702 23.9707L103.995 12.5367L103.168 12.2239ZM98.6565 24.2323H110.177V23.3964H98.6565V24.2323ZM110.591 23.6591L105.709 12.2251L104.88 12.5355L109.762 23.9696L110.591 23.6591ZM105.712 12.2321C105.55 11.8328 105.385 11.5054 105.212 11.2705C105.06 11.0642 104.808 10.7989 104.438 10.7989V11.6348C104.325 11.6348 104.344 11.5634 104.478 11.745C104.59 11.8979 104.725 12.1522 104.877 12.5285L105.712 12.2321ZM104.438 10.7989C104.068 10.7989 103.816 11.0642 103.664 11.2705C103.491 11.5054 103.326 11.8328 103.164 12.2321L103.999 12.5285C104.151 12.1522 104.286 11.8979 104.398 11.745C104.532 11.5634 104.551 11.6348 104.438 11.6348V10.7989ZM168.17 34.6867V35.1046H168.616V34.6867H168.17ZM162.517 34.6867H162.071V35.1046H162.517V34.6867ZM162.517 6.60312V6.18521H162.071V6.60312H162.517ZM168.17 6.60312H168.616V6.18521H168.17V6.60312ZM168.17 34.2688H162.517V35.1046H168.17V34.2688ZM162.963 34.6867V6.60312H162.071V34.6867H162.963ZM162.517 7.02103H168.17V6.18521H162.517V7.02103ZM167.723 6.60312V34.6867H168.616V6.60312H167.723ZM172.407 34.6867H171.961V35.1046H172.407V34.6867ZM172.407 30.4742V30.0563H171.961V30.4742H172.407ZM188.938 24.2557L188.804 24.6543L188.806 24.655L188.938 24.2557ZM177.118 20.7653L176.983 21.1635L176.984 21.1638L177.118 20.7653ZM173.135 18.1976L172.751 18.4102L172.755 18.4151L172.758 18.4199L173.135 18.1976ZM173.735 8.44862L174.068 8.72628L174.071 8.72285L173.735 8.44862ZM196.133 6.60312H196.579V6.18521H196.133V6.60312ZM196.133 10.8157V11.2336H196.579V10.8157H196.133ZM178.531 11.4977L178.856 11.7841L178.531 11.4977ZM178.317 15.5498L177.931 15.7591L177.935 15.7661L177.94 15.7729L178.317 15.5498ZM180.459 16.7935L180.593 16.395V16.3949L180.459 16.7935ZM191.422 20.0431L191.556 19.6447L191.422 20.0431ZM196.218 22.6509L195.874 22.9168L195.876 22.9192L195.878 22.9215L196.218 22.6509ZM196.09 32.7209L195.734 32.469L195.73 32.4734L196.09 32.7209ZM172.854 34.6867V30.4742H171.961V34.6867H172.854ZM172.407 30.8921H189.024V30.0563H172.407V30.8921ZM189.024 30.8921C190.052 30.8921 190.9 30.612 191.48 29.9859C192.05 29.3712 192.296 28.4926 192.296 27.4251H191.404C191.404 28.3903 191.179 29.0363 190.807 29.4379C190.445 29.8282 189.879 30.0563 189.024 30.0563V30.8921ZM192.296 27.4251C192.296 26.5615 192.023 25.8094 191.46 25.1966C190.904 24.5908 190.092 24.1522 189.07 23.8563L188.806 24.655C189.725 24.9208 190.37 25.2912 190.784 25.7419C191.192 26.1856 191.404 26.7374 191.404 27.4251H192.296ZM189.072 23.8571L177.252 20.3667L176.984 21.1638L188.804 24.6542L189.072 23.8571ZM177.253 20.367C175.433 19.8244 174.211 19.0157 173.513 17.9754L172.758 18.4199C173.602 19.6798 175.035 20.5828 176.983 21.1635L177.253 20.367ZM173.52 17.985C172.833 16.8966 172.468 15.3751 172.468 13.3833H171.576C171.576 15.4569 171.953 17.145 172.751 18.4102L173.52 17.985ZM172.468 13.3833C172.468 11.3684 173.018 9.83294 174.068 8.72628L173.401 8.17096C172.167 9.47145 171.576 11.2258 171.576 13.3833H172.468ZM174.071 8.72285C175.104 7.61025 176.676 7.02103 178.874 7.02103V6.18521C176.504 6.18521 174.65 6.82633 173.398 8.17438L174.071 8.72285ZM178.874 7.02103H196.133V6.18521H178.874V7.02103ZM195.687 6.60312V10.8157H196.579V6.60312H195.687ZM196.133 10.3977H180.373V11.2336H196.133V10.3977ZM180.373 10.3977C179.5 10.3977 178.761 10.6593 178.207 11.2113L178.856 11.7841C179.215 11.4267 179.704 11.2336 180.373 11.2336V10.3977ZM178.207 11.2113C177.639 11.7764 177.4 12.6106 177.4 13.624H178.292C178.292 12.7117 178.511 12.1284 178.856 11.7841L178.207 11.2113ZM177.4 13.624C177.4 14.4503 177.567 15.1701 177.931 15.7591L178.703 15.3404C178.439 14.9131 178.292 14.349 178.292 13.624H177.4ZM177.94 15.7729C178.369 16.4084 179.209 16.8619 180.324 17.192L180.593 16.3949C179.539 16.083 178.951 15.7074 178.694 15.3266L177.94 15.7729ZM180.324 17.1919L191.287 20.4416L191.556 19.6447L180.593 16.395L180.324 17.1919ZM191.287 20.4416C193.505 21.0991 195.01 21.936 195.874 22.9168L196.562 22.3849C195.542 21.226 193.849 20.3244 191.556 19.6447L191.287 20.4416ZM195.878 22.9215C196.752 23.885 197.228 25.3748 197.228 27.4652H198.12C198.12 25.2762 197.625 23.5565 196.558 22.3802L195.878 22.9215ZM197.228 27.4652C197.228 29.5978 196.715 31.2519 195.734 32.469L196.446 32.9727C197.578 31.5686 198.12 29.719 198.12 27.4652H197.228ZM195.73 32.4734C194.809 33.6487 193.349 34.2688 191.251 34.2688V35.1046C193.549 35.1046 195.315 34.4142 196.449 32.9683L195.73 32.4734ZM191.251 34.2688H172.407V35.1046H191.251V34.2688Z" fill="white"/>
<path d="M130.327 34.4891L125.015 34.4959L124.883 7.7918C124.937 7.36733 125.249 6.78251 126.159 6.78251C127.069 6.78251 129.838 6.7632 131.084 6.78251C131.957 6.92209 132.087 7.15512 132.52 8.08116C132.953 9.00725 138.044 19.4641 140.536 24.5768L148.877 7.84968C149.094 7.38664 149.745 6.78284 150.525 6.78284C151.304 6.78284 153.803 6.76353 154.976 6.78284C155.5 6.80211 156.098 6.83098 156.141 8.12747C156.184 9.42395 156.217 26.546 156.145 34.4947H150.915L150.903 18.0469C150.931 17.4526 149.299 16.9992 148.628 18.4031C147.946 19.8308 144.063 27.2254 142.204 30.6982C142.081 30.929 141.818 31.2359 141.393 31.2701C140.961 31.3049 140.213 31.3192 139.767 31.2675C139.539 31.2423 139.149 31.1051 138.924 30.6982C138.699 30.2912 134.565 22.1932 132.543 18.0028C132.26 17.4457 130.512 17.18 130.312 18.3753L130.327 34.4891Z" fill="white" stroke="white"/>
<path d="M149.014 42.0336H144.646C143.276 42.0336 142.334 42.2943 141.82 42.8159C141.317 43.3274 141.065 44.2953 141.065 45.7195C141.065 47.1438 141.317 48.1167 141.82 48.6382C142.334 49.1497 143.276 49.4055 144.646 49.4055H146.349C146.67 49.4055 146.884 49.3553 146.991 49.255C147.098 49.1547 147.151 48.9542 147.151 48.6533V45.8248H149.271V49.4055C149.271 50.4586 148.725 50.9852 147.633 50.9852H143.651C142.719 50.9852 141.932 50.8598 141.29 50.6091C140.647 50.3483 140.155 49.9722 139.812 49.4807C139.47 48.9792 139.229 48.4276 139.09 47.8258C138.95 47.224 138.881 46.5219 138.881 45.7195C138.881 44.9171 138.95 44.215 139.09 43.6133C139.229 43.0115 139.47 42.4648 139.812 41.9734C140.155 41.4719 140.647 41.0958 141.29 40.845C141.932 40.5842 142.719 40.4539 143.651 40.4539H149.014V42.0336ZM152.99 50.9852H150.87V42.0336C150.87 40.9804 151.416 40.4539 152.508 40.4539H158.177C159.184 40.4539 159.901 40.7347 160.329 41.2964C160.768 41.848 160.988 42.6755 160.988 43.7787C160.988 46.1257 160.12 47.2992 158.386 47.2992H157.262V47.3745L161.212 50.9852H158.482L154.853 47.57C154.5 47.219 154.323 46.9231 154.323 46.6824V46.4417C154.323 46.221 154.403 46.0455 154.564 45.9151C154.735 45.7847 154.971 45.7195 155.27 45.7195H157.455C158.001 45.7195 158.359 45.5641 158.531 45.2531C158.713 44.9422 158.804 44.4507 158.804 43.7787C158.804 43.1368 158.696 42.6855 158.482 42.4247C158.279 42.1639 157.856 42.0336 157.214 42.0336H153.793C153.472 42.0336 153.258 42.0837 153.151 42.184C153.044 42.2843 152.99 42.4849 152.99 42.7858V50.9852ZM168.108 40.3335C169.2 40.3335 170.094 40.4137 170.79 40.5742C171.486 40.7347 172.075 41.0205 172.557 41.4318C173.038 41.843 173.381 42.3946 173.585 43.0867C173.788 43.7687 173.89 44.6463 173.89 45.7195C173.89 46.7927 173.788 47.6753 173.585 48.3674C173.381 49.0494 173.038 49.5961 172.557 50.0073C172.075 50.4185 171.486 50.7044 170.79 50.8648C170.094 51.0253 169.2 51.1056 168.108 51.1056C167.027 51.1056 166.138 51.0253 165.442 50.8648C164.746 50.7044 164.158 50.4185 163.676 50.0073C163.194 49.5961 162.851 49.0494 162.648 48.3674C162.445 47.6753 162.343 46.7927 162.343 45.7195C162.343 44.6463 162.445 43.7687 162.648 43.0867C162.851 42.3946 163.194 41.843 163.676 41.4318C164.158 41.0205 164.746 40.7347 165.442 40.5742C166.138 40.4137 167.027 40.3335 168.108 40.3335ZM165.266 42.6955C164.773 43.2171 164.527 44.2251 164.527 45.7195C164.527 47.214 164.773 48.222 165.266 48.7435C165.769 49.2651 166.716 49.5259 168.108 49.5259C169.5 49.5259 170.448 49.2651 170.951 48.7435C171.454 48.222 171.706 47.214 171.706 45.7195C171.706 44.2251 171.454 43.2171 170.951 42.6955C170.448 42.174 169.5 41.9132 168.108 41.9132C166.716 41.9132 165.769 42.174 165.266 42.6955ZM178.271 48.9692C178.71 49.3403 179.411 49.5259 180.375 49.5259C181.339 49.5259 182.04 49.3403 182.479 48.9692C182.918 48.5881 183.137 47.9863 183.137 47.1638V40.4539H185.257V47.1638C185.257 48.5981 184.845 49.6161 184.02 50.2179C183.207 50.8097 181.992 51.1056 180.375 51.1056C178.758 51.1056 177.538 50.8097 176.713 50.2179C175.9 49.6161 175.493 48.5981 175.493 47.1638V40.4539H177.613V47.1638C177.613 47.9863 177.832 48.5881 178.271 48.9692ZM187.177 50.9852V42.0336C187.177 40.9804 187.723 40.4539 188.815 40.4539H194.403C194.982 40.4539 195.463 40.5441 195.849 40.7247C196.245 40.8952 196.539 41.1509 196.732 41.4919C196.935 41.8229 197.075 42.174 197.15 42.5451C197.225 42.9062 197.262 43.3374 197.262 43.8389C197.262 44.3404 197.225 44.7767 197.15 45.1478C197.075 45.5189 196.935 45.875 196.732 46.216C196.539 46.547 196.245 46.8028 195.849 46.9833C195.463 47.1638 194.982 47.2541 194.403 47.2541H189.296V50.9852H187.177ZM189.296 45.6744H193.36C194.045 45.6744 194.5 45.534 194.725 45.2531C194.96 44.9623 195.078 44.4909 195.078 43.8389C195.078 43.187 194.96 42.7256 194.725 42.4548C194.5 42.174 194.045 42.0336 193.36 42.0336H190.099C189.778 42.0336 189.564 42.0837 189.457 42.184C189.35 42.2843 189.296 42.4849 189.296 42.7858V45.6744Z" fill="white"/>
</g>
<defs>
<radialGradient id="paint0_angular_666_1507" cx="0" cy="0" r="1" gradientUnits="userSpaceOnUse" gradientTransform="translate(32 28.1047) rotate(90) scale(22.4836 32)">
<stop stop-color="#0050FF"/>
<stop offset="1" stop-color="white" stop-opacity="0"/>
</radialGradient>
<clipPath id="clip0_666_1507">
<rect width="120" height="56" fill="white" transform="translate(88)"/>
</clipPath>
</defs>
</svg>
