<svg width="208" height="57" viewBox="0 0 208 57" fill="none" xmlns="http://www.w3.org/2000/svg">
<path fill-rule="evenodd" clip-rule="evenodd" d="M31.4017 6.56348H32.7831C33.0376 6.56348 33.2921 6.56348 33.5829 6.56348H44.9255C47.2159 6.56348 49.3608 9.92289 50.1242 11.9875L63.8663 48.9061C64.6297 50.9707 61.9758 51.5306 59.6855 51.5306H45.5436C43.2532 51.5306 40.8538 49.606 40.1267 47.5063L32.0924 24.3754L24.058 47.5063C23.3309 49.606 20.9315 51.5306 18.6412 51.5306C13.9151 51.5306 9.22539 51.5306 4.4993 51.5306C2.20896 51.5306 -0.663047 50.7958 0.136752 48.7311C1.62729 44.7768 5.19003 32.8439 7.88027 30.3943C9.18903 29.2395 10.1706 29.1345 12.8972 28.8196C15.8783 28.3997 16.7871 28.4697 17.6596 27.8398C19.4047 26.58 20.3499 24.7603 21.0406 22.8356C22.7129 18.1465 24.3852 13.4923 26.0939 8.80309C26.821 6.73845 27.0391 6.70345 30.0929 6.63346C30.5291 6.59847 31.0018 6.56348 31.438 6.56348H31.4017Z" fill="url(#paint0_angular_1382_1332)"/>
<g clip-path="url(#clip0_1382_1332)">
<path d="M88.207 35.6291L99.5129 10.394C100.055 9.19046 100.669 8.36133 101.354 7.90664C102.068 7.45195 103.096 7.22461 104.438 7.22461C105.723 7.22461 106.722 7.46533 107.436 7.94676C108.178 8.40145 108.82 9.21721 109.363 10.394L120.669 35.6291H114.716L111.632 28.528H97.2003L94.1597 35.6291H88.207ZM103.581 13.3228L98.6564 24.7568H110.176L105.294 13.3228C104.98 12.5471 104.695 12.1593 104.438 12.1593C104.181 12.1593 103.895 12.5471 103.581 13.3228ZM168.169 35.6291H162.516V7.54556H168.169V35.6291ZM172.407 35.6291V31.4166H189.024C190.908 31.4166 191.85 30.4003 191.85 28.3675C191.85 26.8163 190.879 25.7598 188.938 25.1981L177.118 21.7077C175.234 21.146 173.906 20.2902 173.135 19.1401C172.393 17.9632 172.022 16.3585 172.022 14.3257C172.022 12.2395 172.593 10.5946 173.735 9.39106C174.877 8.16073 176.59 7.54556 178.874 7.54556H196.133V11.7581H180.373C179.602 11.7581 178.988 11.9854 178.531 12.4401C178.075 12.8948 177.846 13.6036 177.846 14.5665C177.846 15.3421 178.003 15.984 178.317 16.4922C178.66 17.0004 179.374 17.4149 180.458 17.7359L191.422 20.9856C193.677 21.6542 195.276 22.5235 196.218 23.5933C197.189 24.6632 197.674 26.268 197.674 28.4077C197.674 30.6009 197.146 32.3527 196.09 33.6633C195.062 34.9739 193.449 35.6291 191.25 35.6291H172.407Z" fill="white"/>
<path d="M88.2072 35.6291L87.7958 35.4674L87.5361 36.047H88.2072V35.6291ZM99.513 10.394L99.102 10.2314L99.1017 10.2323L99.513 10.394ZM101.355 7.90658L101.104 7.56101L101.1 7.56323L101.097 7.56557L101.355 7.90658ZM107.436 7.9467L107.175 8.28584L107.183 8.29135L107.192 8.29649L107.436 7.9467ZM109.363 10.394L109.774 10.2323L109.772 10.2283L109.363 10.394ZM120.669 35.6291V36.047H121.34L121.08 35.4674L120.669 35.6291ZM114.716 35.6291L114.303 35.7866L114.416 36.047H114.716V35.6291ZM111.633 28.528L112.046 28.3705L111.933 28.11H111.633V28.528ZM97.2005 28.528V28.11H96.8988L96.7864 28.3724L97.2005 28.528ZM94.1599 35.6291V36.047H94.4616L94.5739 35.7847L94.1599 35.6291ZM103.581 13.3227L103.995 13.4791L103.997 13.475L103.999 13.4709L103.581 13.3227ZM98.6565 24.7567L98.2429 24.6003L97.9955 25.1746H98.6565V24.7567ZM110.177 24.7567V25.1746H110.835L110.591 24.6015L110.177 24.7567ZM105.294 13.3227L104.877 13.4709L104.879 13.4744L104.88 13.4779L105.294 13.3227ZM88.6185 35.7908L99.9244 10.5557L99.1017 10.2323L87.7958 35.4674L88.6185 35.7908ZM99.924 10.5566C100.453 9.38231 101.026 8.63663 101.612 8.2476L101.097 7.56557C100.312 8.08591 99.6577 8.9985 99.1021 10.2314L99.924 10.5566ZM101.605 8.25215C102.215 7.86408 103.14 7.64246 104.438 7.64246V6.80664C103.053 6.80664 101.922 7.03971 101.104 7.56101L101.605 8.25215ZM104.438 7.64246C105.67 7.64246 106.565 7.87432 107.175 8.28584L107.696 7.60757C106.879 7.05622 105.775 6.80664 104.438 6.80664V7.64246ZM107.192 8.29649C107.831 8.68812 108.428 9.42021 108.953 10.5596L109.772 10.2283C109.213 9.01409 108.525 8.11466 107.68 7.59691L107.192 8.29649ZM108.952 10.5557L120.257 35.7908L121.08 35.4674L109.774 10.2323L108.952 10.5557ZM120.669 35.2112H114.716V36.047H120.669V35.2112ZM115.129 35.4716L112.046 28.3705L111.219 28.6854L114.303 35.7866L115.129 35.4716ZM111.633 28.11H97.2005V28.9459H111.633V28.11ZM96.7864 28.3724L93.7459 35.4735L94.5739 35.7847L97.6145 28.6835L96.7864 28.3724ZM94.1599 35.2112H88.2072V36.047H94.1599V35.2112ZM103.168 13.1663L98.2429 24.6003L99.0702 24.9131L103.995 13.4791L103.168 13.1663ZM98.6565 25.1746H110.177V24.3388H98.6565V25.1746ZM110.591 24.6015L105.709 13.1675L104.88 13.4779L109.762 24.9119L110.591 24.6015ZM105.712 13.1745C105.55 12.7752 105.385 12.4478 105.212 12.2129C105.06 12.0066 104.808 11.7413 104.438 11.7413V12.5771C104.325 12.5771 104.344 12.5058 104.478 12.6874C104.59 12.8403 104.725 13.0946 104.877 13.4709L105.712 13.1745ZM104.438 11.7413C104.068 11.7413 103.816 12.0066 103.664 12.2129C103.491 12.4478 103.326 12.7752 103.164 13.1745L103.999 13.4709C104.151 13.0946 104.286 12.8403 104.398 12.6874C104.532 12.5058 104.551 12.5771 104.438 12.5771V11.7413ZM168.17 35.6291V36.047H168.616V35.6291H168.17ZM162.517 35.6291H162.071V36.047H162.517V35.6291ZM162.517 7.54551V7.1276H162.071V7.54551H162.517ZM168.17 7.54551H168.616V7.1276H168.17V7.54551ZM168.17 35.2112H162.517V36.047H168.17V35.2112ZM162.963 35.6291V7.54551H162.071V35.6291H162.963ZM162.517 7.96342H168.17V7.1276H162.517V7.96342ZM167.723 7.54551V35.6291H168.616V7.54551H167.723ZM172.407 35.6291H171.961V36.047H172.407V35.6291ZM172.407 31.4166V30.9986H171.961V31.4166H172.407ZM188.938 25.198L188.804 25.5966L188.806 25.5974L188.938 25.198ZM177.118 21.7077L176.983 22.1059L176.984 22.1062L177.118 21.7077ZM173.135 19.14L172.751 19.3526L172.755 19.3575L172.758 19.3623L173.135 19.14ZM173.735 9.391L174.068 9.66866L174.071 9.66523L173.735 9.391ZM196.133 7.54551H196.579V7.1276H196.133V7.54551ZM196.133 11.758V12.176H196.579V11.758H196.133ZM178.531 12.4401L178.856 12.7265L178.531 12.4401ZM178.317 16.4921L177.931 16.7015L177.935 16.7085L177.94 16.7153L178.317 16.4921ZM180.459 17.7358L180.593 17.3374V17.3373L180.459 17.7358ZM191.422 20.9855L191.556 20.5871L191.422 20.9855ZM196.218 23.5933L195.874 23.8592L195.876 23.8616L195.878 23.8639L196.218 23.5933ZM196.09 33.6632L195.734 33.4114L195.73 33.4158L196.09 33.6632ZM172.854 35.6291V31.4166H171.961V35.6291H172.854ZM172.407 31.8345H189.024V30.9986H172.407V31.8345ZM189.024 31.8345C190.052 31.8345 190.9 31.5543 191.48 30.9283C192.05 30.3136 192.296 29.4349 192.296 28.3675H191.404C191.404 29.3327 191.179 29.9786 190.807 30.3803C190.445 30.7706 189.879 30.9986 189.024 30.9986V31.8345ZM192.296 28.3675C192.296 27.5039 192.023 26.7518 191.46 26.139C190.904 25.5332 190.092 25.0946 189.07 24.7987L188.806 25.5974C189.725 25.8632 190.37 26.2336 190.784 26.6843C191.192 27.128 191.404 27.6798 191.404 28.3675H192.296ZM189.072 24.7995L177.252 21.3091L176.984 22.1062L188.804 25.5966L189.072 24.7995ZM177.253 21.3094C175.433 20.7668 174.211 19.9581 173.513 18.9178L172.758 19.3623C173.602 20.6221 175.035 21.5252 176.983 22.1059L177.253 21.3094ZM173.52 18.9274C172.833 17.8389 172.468 16.3175 172.468 14.3257H171.576C171.576 16.3993 171.953 18.0874 172.751 19.3526L173.52 18.9274ZM172.468 14.3257C172.468 12.3108 173.018 10.7753 174.068 9.66866L173.401 9.11334C172.167 10.4138 171.576 12.1681 171.576 14.3257H172.468ZM174.071 9.66523C175.104 8.55263 176.676 7.96342 178.874 7.96342V7.1276C176.504 7.1276 174.65 7.76871 173.398 9.11677L174.071 9.66523ZM178.874 7.96342H196.133V7.1276H178.874V7.96342ZM195.687 7.54551V11.758H196.579V7.54551H195.687ZM196.133 11.3401H180.373V12.176H196.133V11.3401ZM180.373 11.3401C179.5 11.3401 178.761 11.6017 178.207 12.1536L178.856 12.7265C179.215 12.3691 179.704 12.176 180.373 12.176V11.3401ZM178.207 12.1536C177.639 12.7187 177.4 13.553 177.4 14.5664H178.292C178.292 13.6541 178.511 13.0708 178.856 12.7265L178.207 12.1536ZM177.4 14.5664C177.4 15.3927 177.567 16.1125 177.931 16.7015L178.703 16.2828C178.439 15.8554 178.292 15.2914 178.292 14.5664H177.4ZM177.94 16.7153C178.369 17.3508 179.209 17.8043 180.324 18.1344L180.593 17.3373C179.539 17.0254 178.951 16.6498 178.694 16.269L177.94 16.7153ZM180.324 18.1343L191.287 21.3839L191.556 20.5871L180.593 17.3374L180.324 18.1343ZM191.287 21.3839C193.505 22.0415 195.01 22.8784 195.874 23.8592L196.562 23.3273C195.542 22.1684 193.849 21.2668 191.556 20.5871L191.287 21.3839ZM195.878 23.8639C196.752 24.8274 197.228 26.3172 197.228 28.4076H198.12C198.12 26.2186 197.625 24.4989 196.558 23.3226L195.878 23.8639ZM197.228 28.4076C197.228 30.5402 196.715 32.1943 195.734 33.4114L196.446 33.9151C197.578 32.511 198.12 30.6614 198.12 28.4076H197.228ZM195.73 33.4158C194.809 34.591 193.349 35.2112 191.251 35.2112V36.047C193.549 36.047 195.315 35.3566 196.449 33.9107L195.73 33.4158ZM191.251 35.2112H172.407V36.047H191.251V35.2112Z" fill="white"/>
<path d="M130.327 35.4315L125.016 35.4382L124.883 8.73419C124.938 8.30971 125.25 7.72489 126.16 7.72489C127.07 7.72489 129.839 7.70558 131.084 7.72489C131.958 7.86447 132.087 8.0975 132.52 9.02355C132.954 9.94964 138.045 20.4065 140.536 25.5192L148.877 8.79207C149.094 8.32902 149.745 7.72522 150.525 7.72522C151.305 7.72522 153.803 7.70592 154.977 7.72522C155.5 7.74449 156.098 7.77337 156.141 9.06985C156.185 10.3663 156.217 27.4884 156.145 35.4371H150.915L150.904 18.9893C150.931 18.3949 149.3 17.9415 148.629 19.3454C147.946 20.7731 144.064 28.1678 142.204 31.6406C142.082 31.8713 141.819 32.1783 141.393 32.2125C140.961 32.2472 140.213 32.2615 139.768 32.2099C139.54 32.1847 139.15 32.0475 138.924 31.6406C138.699 31.2336 134.566 23.1355 132.544 18.9452C132.26 18.3881 130.513 18.1224 130.312 19.3177L130.327 35.4315Z" fill="white" stroke="white"/>
<path d="M149.014 42.9759H144.646C143.275 42.9759 142.333 43.2367 141.819 43.7583C141.316 44.2698 141.064 45.2377 141.064 46.6619C141.064 48.0861 141.316 49.059 141.819 49.5806C142.333 50.0921 143.275 50.3479 144.646 50.3479H146.348C146.669 50.3479 146.883 50.2977 146.99 50.1974C147.097 50.0971 147.151 49.8965 147.151 49.5956V46.7672H149.271V50.3479C149.271 51.401 148.725 51.9276 147.633 51.9276H143.65C142.719 51.9276 141.932 51.8022 141.289 51.5515C140.647 51.2907 140.154 50.9146 139.812 50.4231C139.469 49.9216 139.228 49.37 139.089 48.7682C138.95 48.1664 138.88 47.4643 138.88 46.6619C138.88 45.8595 138.95 45.1574 139.089 44.5556C139.228 43.9538 139.469 43.4072 139.812 42.9158C140.154 42.4143 140.647 42.0381 141.289 41.7874C141.932 41.5266 142.719 41.3962 143.65 41.3962H149.014V42.9759ZM152.99 51.9276H150.87V42.9759C150.87 41.9228 151.416 41.3962 152.508 41.3962H158.177C159.183 41.3962 159.9 41.6771 160.329 42.2387C160.768 42.7904 160.987 43.6178 160.987 44.7211C160.987 47.0681 160.12 48.2416 158.386 48.2416H157.261V48.3168L161.212 51.9276H158.482L154.852 48.5124C154.499 48.1614 154.322 47.8655 154.322 47.6248V47.3841C154.322 47.1634 154.403 46.9879 154.563 46.8575C154.735 46.7271 154.97 46.6619 155.27 46.6619H157.454C158 46.6619 158.359 46.5064 158.53 46.1955C158.712 45.8846 158.803 45.3931 158.803 44.7211C158.803 44.0792 158.696 43.6279 158.482 43.3671C158.278 43.1063 157.856 42.9759 157.213 42.9759H153.792C153.471 42.9759 153.257 43.0261 153.15 43.1264C153.043 43.2267 152.99 43.4273 152.99 43.7282V51.9276ZM168.108 41.2759C169.2 41.2759 170.094 41.3561 170.79 41.5166C171.486 41.6771 172.074 41.9629 172.556 42.3741C173.038 42.7854 173.381 43.337 173.584 44.0291C173.787 44.7111 173.889 45.5887 173.889 46.6619C173.889 47.7351 173.787 48.6177 173.584 49.3098C173.381 49.9918 173.038 50.5384 172.556 50.9497C172.074 51.3609 171.486 51.6467 170.79 51.8072C170.094 51.9677 169.2 52.0479 168.108 52.0479C167.026 52.0479 166.138 51.9677 165.442 51.8072C164.746 51.6467 164.157 51.3609 163.675 50.9497C163.194 50.5384 162.851 49.9918 162.648 49.3098C162.444 48.6177 162.342 47.7351 162.342 46.6619C162.342 45.5887 162.444 44.7111 162.648 44.0291C162.851 43.337 163.194 42.7854 163.675 42.3741C164.157 41.9629 164.746 41.6771 165.442 41.5166C166.138 41.3561 167.026 41.2759 168.108 41.2759ZM165.265 43.6379C164.773 44.1595 164.526 45.1675 164.526 46.6619C164.526 48.1564 164.773 49.1644 165.265 49.6859C165.768 50.2075 166.716 50.4682 168.108 50.4682C169.5 50.4682 170.447 50.2075 170.95 49.6859C171.453 49.1644 171.705 48.1564 171.705 46.6619C171.705 45.1675 171.453 44.1595 170.95 43.6379C170.447 43.1164 169.5 42.8556 168.108 42.8556C166.716 42.8556 165.768 43.1164 165.265 43.6379ZM178.271 49.9116C178.71 50.2827 179.411 50.4682 180.375 50.4682C181.338 50.4682 182.039 50.2827 182.478 49.9116C182.917 49.5304 183.137 48.9287 183.137 48.1062V41.3962H185.257V48.1062C185.257 49.5405 184.844 50.5585 184.02 51.1603C183.206 51.7521 181.991 52.0479 180.375 52.0479C178.758 52.0479 177.537 51.7521 176.713 51.1603C175.899 50.5585 175.492 49.5405 175.492 48.1062V41.3962H177.612V48.1062C177.612 48.9287 177.832 49.5304 178.271 49.9116ZM187.176 51.9276V42.9759C187.176 41.9228 187.722 41.3962 188.814 41.3962H194.403C194.981 41.3962 195.463 41.4865 195.848 41.667C196.244 41.8375 196.539 42.0933 196.732 42.4343C196.935 42.7653 197.074 43.1164 197.149 43.4875C197.224 43.8485 197.261 44.2798 197.261 44.7813C197.261 45.2828 197.224 45.7191 197.149 46.0902C197.074 46.4613 196.935 46.8174 196.732 47.1584C196.539 47.4894 196.244 47.7451 195.848 47.9257C195.463 48.1062 194.981 48.1965 194.403 48.1965H189.296V51.9276H187.176ZM189.296 46.6168H193.359C194.044 46.6168 194.499 46.4764 194.724 46.1955C194.96 45.9047 195.077 45.4333 195.077 44.7813C195.077 44.1294 194.96 43.668 194.724 43.3972C194.499 43.1164 194.044 42.9759 193.359 42.9759H190.099C189.778 42.9759 189.564 43.0261 189.457 43.1264C189.35 43.2267 189.296 43.4273 189.296 43.7282V46.6168Z" fill="white"/>
</g>
<defs>
<radialGradient id="paint0_angular_1382_1332" cx="0" cy="0" r="1" gradientUnits="userSpaceOnUse" gradientTransform="translate(32 29.0471) rotate(90) scale(22.4836 32)">
<stop stop-color="#0050FF"/>
<stop offset="1" stop-color="white" stop-opacity="0"/>
</radialGradient>
<clipPath id="clip0_1382_1332">
<rect width="120" height="56" fill="white" transform="translate(88 0.942383)"/>
</clipPath>
</defs>
</svg>
